#!OML:ASF F:\VICON\USERDATA\Patient Classification 1\PLAYGROUND\JustinFriday\JustinFriday.ASF
:FULLY-SPECIFIED
:DEGREES
953
root 0.426528 18.9854 48.6522 -241.202 -250.983 122.678
lowerback 20.5719 2.11878 10.3929
upperback 5.63091 5.66825 4.68665
thorax -4.82414 2.9157 -2.17431
lowerneck 18.1822 -0.259584 -7.69762
upperneck -13.7102 -0.842203 8.50536
head -7.1037 -0.789278 4.15847
rclavicle -1.63252e-014 1.60022e-014
rhumerus -25.8591 -23.8193 -56.8356
rradius 77.6838
rwrist 165.288
rhand -20.1783 27.5605
rfingers 7.12502
rthumb 6.16767 -2.32968
lclavicle -1.63252e-014 1.60022e-014
lhumerus 19.8095 57.7176 42.6748
lradius 39.8287
lwrist 47.5384
lhand 0.327071 5.30523
lfingers 7.12502
lthumb 25.9036 33.5606
rfemur 12.3701 -9.10398 39.904
rtibia 3.18055e-015
rfoot 4.01331 -23.041
rtoes 18.287
lfemur -73.2577 20.9795 -19.3291
ltibia 81.8696
lfoot -21.8002 27.212
ltoes 7.56757
954
root 0.517422 18.9997 48.7263 -241.53 -251.787 122.467
lowerback 19.8233 2.81114 8.69809
upperback 5.97879 6.16349 5.28487
thorax -4.2624 3.20728 -0.6561
lowerneck 18.8056 -0.537975 -7.94635
upperneck -15.2705 -1.34621 8.06564
head -7.67686 -0.974643 4.15858
rclavicle -1.31819e-014 2.55438e-014
rhumerus -25.8937 -23.6124 -55.7962
rradius 78.5061
rwrist 165.339
rhand -20.1498 27.579
rfingers 7.12502
rthumb 6.19518 -2.31045
lclavicle -1.31819e-014 2.55438e-014
lhumerus 21.6964 57.8925 45.4591
lradius 39.592
lwrist 47.1584
lhand 0.793143 5.33028
lfingers 7.12502
lthumb 26.3498 33.5197
rfemur 12.7277 -8.9232 39.4443
rtibia 3.18055e-015
rfoot 2.88073 -24.0916
rtoes 19.9413
lfemur -72.6601 21.0566 -19.4809
ltibia 80.7761
lfoot -22.3086 27.4587
ltoes 9.41018
955
root 0.60634 18.9904 48.7992 -242.052 -252.33 121.91
lowerback 20.3571 2.26051 9.14268
upperback 5.52826 5.51499 4.19673
thorax -4.91071 2.82904 -1.97154
lowerneck 19.1778 0.000717905 -8.07213
upperneck -16.0562 -0.448449 8.93942
head -8.07892 -0.624372 4.40458
rclavicle -1.81391e-014 -2.92213e-014
rhumerus -25.9416 -22.4172 -57.9919
rradius 79.3224
rwrist 165.721
rhand -19.7442 27.666
rfingers 7.12502
rthumb 6.58676 -2.21159
lclavicle -1.81391e-014 -2.92213e-014
lhumerus 20.5715 57.7407 42.3367
lradius 39.62
lwrist 47.683
lhand 1.1086 5.50943
lfingers 7.12502
lthumb 26.6518 33.6533
rfemur 12.9459 -8.67061 39.3374
rtibia -6.36111e-015
rfoot 2.35905 -24.9023
rtoes 20.1646
lfemur -72.211 21.0173 -19.2654
ltibia 79.7202
lfoot -22.8541 27.7201
ltoes 10.5296
956
root 0.693457 18.9994 48.88 -243.766 -252.184 120.203
lowerback 20.8786 2.11962 9.90366
upperback 5.07145 5.51393 3.52038
thorax -5.53338 2.76437 -3.16579
lowerneck 19.7994 -0.00215571 -7.1232
upperneck -16.9687 -0.0932591 9.22308
head -8.53077 -0.55046 4.33857
rclavicle -3.55825e-014 6.75868e-015
rhumerus -26.7502 -21.9892 -59.3415
rradius 80.1769
rwrist 166.089
rhand -19.1253 27.7549
rfingers 7.12502
rthumb 7.18422 -2.10312
lclavicle -3.55825e-014 6.75868e-015
lhumerus 21.0058 56.736 40.9307
lradius 39.552
lwrist 48.2633
lhand 1.29478 5.94817
lfingers 7.12502
lthumb 26.83 34.0648
rfemur 13.2405 -8.45299 40.0864
rtibia 1.59028e-015
rfoot 2.05991 -25.5442
rtoes 19.6
lfemur -72.3859 21.6182 -18.8448
ltibia 79.216
lfoot -22.0333 28.5568
ltoes 8.69434
957
root 0.784209 18.9919 48.9476 -245.02 -252.692 118.642
lowerback 21.3706 1.88663 10.021
upperback 4.32119 5.2563 2.81749
thorax -6.56144 2.53262 -3.99218
lowerneck 20.2126 0.17603 -6.72259
upperneck -17.2896 0.361997 9.59972
head -8.75718 -0.407652 4.36217
rclavicle -3.81667e-014 -3.49861e-014
rhumerus -27.6024 -20.9931 -60.6257
rradius 80.9797
rwrist 166.489
rhand -18.8732 27.779
rfingers 7.12502
rthumb 7.42751 -2.07066
lclavicle -3.81667e-014 -3.49861e-014
lhumerus 20.5941 55.8253 38.8068
lradius 39.3302
lwrist 48.5924
lhand 1.53863 6.55556
lfingers 7.12502
lthumb 27.0633 34.6361
rfemur 13.1615 -8.34572 40.1667
rtibia 2.38542e-014
rfoot 1.37139 -26.1971
rtoes 20.0934
lfemur -72.3707 21.4013 -18.6381
ltibia 78.4214
lfoot -22.7747 28.7514
ltoes 9.92718
958
root 0.877853 18.9889 49.0177 -245.863 -253.546 117.593
lowerback 19.9748 2.27579 8.54183
upperback 4.95343 5.29797 3.34294
thorax -5.32277 2.67035 -2.50231
lowerneck 19.9337 0.198318 -7.71047
upperneck -18.4044 0.151961 9.46635
head -9.06518 -0.413008 4.53941
rclavicle -4.45278e-014 2.78299e-015
rhumerus -26.3738 -20.4486 -60.3434
rradius 81.4371
rwrist 166.601
rhand -18.8225 27.8496
rfingers 7.12502
rthumb 7.47649 -1.99825
lclavicle -4.45278e-014 2.78299e-015
lhumerus 22.4609 57.0091 41.412
lradius 39.079
lwrist 47.8552
lhand 1.9455 6.85386
lfingers 7.12502
lthumb 27.4525 34.8733
rfemur 13.2038 -8.2532 39.8164
rtibia 2.06736e-014
rfoot 0.568583 -26.9171
rtoes 20.7828
lfemur -72.1769 21.2235 -18.882
ltibia 77.7324
lfoot -23.508 29.0353
ltoes 10.4821
959
root 0.970036 18.9808 49.0839 -247.832 -254.132 115.463
lowerback 19.3603 2.23649 8.40195
upperback 5.13974 5.10761 2.97917
thorax -4.79152 2.60794 -2.72284
lowerneck 19.865 0.138379 -7.45192
upperneck -19.3295 0.275122 9.66708
head -9.38441 -0.384173 4.58042
rclavicle -1.98785e-014 2.94201e-014
rhumerus -25.8907 -20.3584 -61.3455
rradius 81.9136
rwrist 166.782
rhand -18.6433 28.004
rfingers 7.12502
rthumb 7.64947 -1.83763
lclavicle -1.98785e-014 2.94201e-014
lhumerus 23.8343 57.0007 41.9246
lradius 38.9436
lwrist 47.9565
lhand 2.29678 7.08318
lfingers 7.12502
lthumb 27.7884 35.0489
rfemur 13.2698 -8.33057 39.8488
rtibia 1.11319e-014
rfoot 0.453611 -27.5717
rtoes 19.9053
lfemur -72.212 21.1679 -19.1698
ltibia 77.4656
lfoot -22.9904 29.915
ltoes 9.19388
